Simulation
nRows=31
nColumns=15
endheader
time  TH_x TH_y TH_z SC_y  SC_z  SC_x  AC_y  AC_z  AC_x  GH_y  GH_z  GH_yy  EL_x  PS_y
7.203000000000001  0.000000  0.000000  0.000000  -26.232904250187584  -5.625550321672465  -26.16748553631616  41.689549030849875  19.457138809519456  4.871929051684701  44.03430709984541  30.95526927279162  22.85764086004168  13.267139185300028  120.000000
7.251020000000001  0.000000  0.000000  0.000000  -26.619754677312066  -5.725525507176794  -26.351636613255145  43.461166379266565  19.485858733477343  5.731993985195462  41.66980181823863  33.18662838438052  22.824372719790077  12.66517403010455  120.000000
7.2990400000000015  0.000000  0.000000  0.000000  -27.067950321330606  -5.688541429505575  -26.389670633879092  45.784016081570144  19.37445690160792  6.7780392804131635  38.823247885344465  35.63163112498526  22.867837053235878  12.15343092310236  120.000000
7.347060000000001  0.000000  0.000000  0.000000  -27.541236162198643  -5.5811059810396975  -26.397499851446685  48.48685586919197  19.241721975849387  7.9995609763399464  35.82917743242666  38.37778271030947  22.799776536554216  11.724231922541943  120.000000
7.395080000000001  0.000000  0.000000  0.000000  -28.047782793228855  -5.5016844955950654  -26.256861462029303  51.49917895778579  19.167365386273524  9.213084140285725  32.98125532926431  41.38571967629872  22.485830358061556  11.372762616728538  120.000000
7.443100000000001  0.000000  0.000000  0.000000  -28.620525713978605  -5.468795403075357  -25.872154237309438  54.71259214499208  19.140660251527827  10.282509918280065  30.47731076064667  44.56756858550761  21.884684792381023  11.107321090469759  120.000000
7.491120000000001  0.000000  0.000000  0.000000  -29.2570770078468  -5.444705995812667  -25.414934180886878  58.01317085634707  19.157779573742637  11.109576258248426  28.387850617509123  47.95864111769446  21.050745837318942  10.931162484112582  120.000000
7.5391400000000015  0.000000  0.000000  0.000000  -29.84166175932591  -5.403557244231411  -25.088574805360587  61.325558478356484  19.302831602128958  11.492971442585526  26.68659362294554  51.66610612993125  20.018095909254665  10.792662765647883  120.000000
7.587160000000001  0.000000  0.000000  0.000000  -30.29015418920893  -5.336798961357313  -24.98261373539344  64.51508866156199  19.68272308130604  11.329321664877654  25.329174387049022  55.714181692997684  18.77297738929275  10.63593408622997  120.000000
7.635180000000001  0.000000  0.000000  0.000000  -30.630303386034566  -5.22860176487195  -25.122284155507938  67.33864276990248  20.291633058017865  10.811248447570257  24.298633332010738  59.93173593480496  17.342582032224783  10.483907985709568  120.000000
7.683200000000001  0.000000  0.000000  0.000000  -30.89425651278682  -4.986749815828718  -25.44919548574711  69.57128939274789  20.99472186542405  10.248809562297454  23.602003133900887  64.01283757420637  15.767899708836586  10.37509000592992  120.000000
7.731220000000001  0.000000  0.000000  0.000000  -31.09384157073002  -4.605265302619252  -25.85607898226065  71.13811587950525  21.67982728591432  9.787929218406996  23.22208981474383  67.66990065929778  14.104469529194466  10.30422727321735  120.000000
7.7792400000000015  0.000000  0.000000  0.000000  -31.267604059295767  -4.287663753273936  -26.22012217582135  72.0768187667095  22.288366400518893  9.444463809076089  23.13390087139549  70.6826295761751  12.405524888731343  10.256699379528436  120.000000
7.827260000000001  0.000000  0.000000  0.000000  -31.465000260578318  -4.191565936010962  -26.442690003672674  72.49453381228702  22.79615092270361  9.24993897168938  23.3625120802713  72.91786487156405  10.67125591268329  10.219907838948426  120.000000
7.875280000000001  0.000000  0.000000  0.000000  -31.74837038858838  -4.313054427753199  -26.406512285488542  72.51105093474972  23.168170080291155  9.247795380688409  23.987301148054257  74.3450174201466  8.875783758222436  10.206619734447532  120.000000
7.923300000000001  0.000000  0.000000  0.000000  -32.14866964346223  -4.561967535352111  -25.91669289603165  72.20285678014882  23.298800004536275  9.407870622161868  25.037190029291622  75.06896811140881  7.032950663310786  10.233112461808883  120.000000
7.971320000000001  0.000000  0.000000  0.000000  -32.58928760962158  -4.853167982847366  -24.90773973453084  71.62852826094431  23.03681685407912  9.55858268845499  26.370358217854516  75.48171640036041  5.260665143977387  10.286763013039034  120.000000
8.019340000000001  0.000000  0.000000  0.000000  -32.996274258928565  -5.215384225095377  -23.432546472436165  70.85220352480938  22.332369463269362  9.516745515689388  27.79397918531977  75.94078239438815  3.6598202595794196  10.341051701614262  120.000000
8.06736  0.000000  0.000000  0.000000  -33.38328227380048  -5.67895094289005  -21.477796715237638  69.94988367026  21.241117616337725  9.209628198254123  29.22701842653948  76.46475167710041  2.2120491109372074  10.379981218032777  120.000000
8.115380000000002  0.000000  0.000000  0.000000  -33.77230455225803  -6.098447604068445  -19.030606536005045  69.04340722601596  19.761657655770094  8.573508627399459  30.624586709289463  77.0138133629205  0.86765212893698  10.398994250843792  120.000000
8.163400000000001  0.000000  0.000000  0.000000  -34.174193814588214  -6.286701914092598  -16.117160271859227  68.27942106869081  17.877684312412377  7.49694926464872  31.919379997664155  77.5834949051168  -0.4027361864225299  10.392323492354105  120.000000
8.21142  0.000000  0.000000  0.000000  -34.564951910374866  -6.2572350065352795  -12.793741873021032  67.71318460567582  15.605475466183389  5.956210976045118  33.05096757153831  78.14657069461909  -1.5884208932401818  10.357597153579452  120.000000
8.259440000000001  0.000000  0.000000  0.000000  -34.88808612126783  -6.171742655488474  -9.178047321336853  67.28384363115002  12.9873265416877  4.094556276180078  33.98882112324651  78.65831976290472  -2.603828808715303  10.32000402460725  120.000000
8.30746  0.000000  0.000000  0.000000  -35.09881742696636  -6.158828852359612  -5.450469400830728  66.93368052645596  10.12281569148541  2.103805667758417  34.71411659697274  79.06516314577794  -3.3433607207877123  10.295527987210157  120.000000
8.355480000000002  0.000000  0.000000  0.000000  -35.17510286465522  -6.267933208638198  -1.7966103738862653  66.65801184610494  7.141087438242567  0.12020451839477997  35.20715791975706  79.31606010875609  -3.7191254574830666  10.277748204636357  120.000000
8.403500000000001  0.000000  0.000000  0.000000  -35.10439667437727  -6.491903466554066  1.6468210201781392  66.45978969160885  4.151116618896379  -1.7632832951343873  35.4528490542722  79.36818323815893  -3.650835521880225  10.266690661257284  120.000000
8.451520000000002  0.000000  0.000000  0.000000  -34.872070931058325  -6.7690913668144725  4.785597866408914  66.32595955710848  1.2433473473924257  -3.449077633047352  35.433539303803975  79.19850280595739  -3.088781812299303  10.25021166996152  120.000000
8.499540000000001  0.000000  0.000000  0.000000  -34.48169027642567  -7.013829070612489  7.548253324964568  66.22607876336139  -1.5059266832931053  -4.844259624108721  35.13804148495619  78.80777420392556  -2.0066443006390204  10.209241098776653  120.000000
8.54756  0.000000  0.000000  0.000000  -33.97403729129117  -7.143919336137817  9.849336831280832  66.11568861677918  -4.062993485094623  -5.872697456114523  34.56994518163377  78.23169824830539  -0.4036970627610739  10.136872158980808  120.000000
8.595580000000002  0.000000  0.000000  0.000000  -33.45120184126691  -7.095642677380636  11.63968567912271  65.94892640450308  -6.41742841100083  -6.44217638975415  33.82057696085103  77.41094315620846  1.62505830020539  10.04576233204781  120.000000
8.643600000000001  0.000000  0.000000  0.000000  -33.06210894645956  -6.77418555513088  13.04361416414972  65.71342737519842  -8.49788094243411  -6.4507065790885685  33.11750220080963  75.96795942073831  3.800702695843465  9.958500371329484  120.000000
